<svg width="53" height="52" viewBox="0 0 53 52" fill="none" xmlns="http://www.w3.org/2000/svg">
<path d="M26.5191 23.1402C27.3148 23.1402 28.0778 23.4563 28.6404 24.0189C29.203 24.5815 29.5191 25.3445 29.5191 26.1402C29.5191 26.9358 29.203 27.6989 28.6404 28.2615C28.0778 28.8241 27.3148 29.1402 26.5191 29.1402C25.7235 29.1402 24.9604 28.8241 24.3978 28.2615C23.8352 27.6989 23.5191 26.9358 23.5191 26.1402C23.5191 25.3445 23.8352 24.5815 24.3978 24.0189C24.9604 23.4563 25.7235 23.1402 26.5191 23.1402ZM3.1791 2.8002C7.4691 -1.4898 16.7691 0.430197 26.5191 6.8202C36.2691 0.430197 45.5691 -1.4898 49.8591 2.8002C54.1491 7.0902 52.2291 16.3902 45.8391 26.1402C52.2291 35.8902 54.1491 45.1902 49.8591 49.4802C45.5691 53.7702 36.2691 51.8502 26.5191 45.4602C16.7691 51.8502 7.4691 53.7702 3.1791 49.4802C-1.1109 45.1902 0.809104 35.8902 7.1991 26.1402C0.809104 16.3902 -1.1109 7.0902 3.1791 2.8002ZM37.1391 15.5202C38.9691 17.3802 40.6491 19.2702 42.2091 21.1602C46.3491 14.7702 47.8491 9.2802 45.5991 7.0602C43.3791 4.8102 37.8891 6.3102 31.4991 10.4502C33.3891 12.0102 35.2791 13.6902 37.1391 15.5202ZM15.8991 36.7602C14.0691 34.9002 12.3891 33.0102 10.8291 31.1202C6.6891 37.5102 5.1891 43.0002 7.4391 45.2202C9.6591 47.4702 15.1491 45.9702 21.5391 41.8302C19.6491 40.2702 17.7591 38.5902 15.8991 36.7602ZM7.4391 7.0602C5.1891 9.2802 6.6891 14.7702 10.8291 21.1602C12.3891 19.2702 14.0691 17.3802 15.8991 15.5202C17.7591 13.6902 19.6491 12.0102 21.5391 10.4502C15.1491 6.3102 9.6591 4.8102 7.4391 7.0602ZM20.1591 32.5002C22.2591 34.6002 24.4191 36.5202 26.5191 38.2302C28.6191 36.5202 30.7791 34.6002 32.8791 32.5002C34.9791 30.4002 36.8991 28.2402 38.6091 26.1402C36.8991 24.0402 34.9791 21.8802 32.8791 19.7802C30.7791 17.6802 28.6191 15.7602 26.5191 14.0502C24.4191 15.7602 22.2591 17.6802 20.1591 19.7802C18.0591 21.8802 16.1391 24.0402 14.4291 26.1402C16.1391 28.2402 18.0591 30.4002 20.1591 32.5002ZM45.5991 45.2202C47.8491 43.0002 46.3491 37.5102 42.2091 31.1202C40.6491 33.0102 38.9691 34.9002 37.1391 36.7602C35.2791 38.5902 33.3891 40.2702 31.4991 41.8302C37.8891 45.9702 43.3791 47.4702 45.5991 45.2202Z" fill="#2FB39B"/>
</svg>
