<svg width="47" height="53" viewBox="0 0 47 53" fill="none" xmlns="http://www.w3.org/2000/svg">
<path d="M43.2091 36.1625C43.2091 36.9238 43.837 37.5468 44.6044 37.5468C45.3719 37.5468 45.9998 36.9238 45.9998 36.1625V2.38435C45.9998 1.62296 45.3719 1 44.6044 1H17.744C16.9765 1 16.3486 1.62296 16.3486 2.38435C16.3486 3.14574 16.9765 3.7687 17.744 3.7687H43.2091V36.1625Z" fill="#2FB39B"/>
<path d="M38.0468 43.6379C37.2794 43.6379 36.6515 43.0149 36.6515 42.2535V9.85976H11.1864C10.4189 9.85976 9.79102 9.2368 9.79102 8.47541C9.79102 7.71402 10.4189 7.09106 11.1864 7.09106H38.0468C38.8143 7.09106 39.4422 7.71402 39.4422 8.47541V42.2535C39.4422 43.0149 38.8143 43.6379 38.0468 43.6379Z" fill="#2FB39B"/>
<path d="M22.8618 28.2764H11.1382C10.5122 28.2764 10 27.7642 10 27.1382C10 26.5122 10.5122 26 11.1382 26H22.8618C23.4878 26 24 26.5122 24 27.1382C24 27.7642 23.5447 28.2764 22.8618 28.2764Z" fill="#2FB39B"/>
<path d="M11.1382 32.9432H22.8618C23.5447 32.9432 24 32.431 24 31.805C24 31.1789 23.4878 30.6667 22.8618 30.6667H11.1382C10.5122 30.6667 10 31.1789 10 31.805C10 32.431 10.5122 32.9432 11.1382 32.9432Z" fill="#2FB39B"/>
<path fill-rule="evenodd" clip-rule="evenodd" d="M31.2093 52.4285H2.39535C1.62791 52.4285 1 51.8056 1 51.0442V14.7742C1 14.0128 1.62791 13.3899 2.39535 13.3899H31.2093C31.9767 13.3899 32.6046 14.0128 32.6046 14.7742V51.0442C32.6046 51.8056 31.9767 52.4285 31.2093 52.4285ZM3.7907 49.6598H29.8139V16.1586H3.7907V49.6598Z" fill="#2FB39B"/>
<path fill-rule="evenodd" clip-rule="evenodd" d="M17.744 1.5C17.2489 1.5 16.8486 1.90282 16.8486 2.38435C16.8486 2.86587 17.2489 3.2687 17.744 3.2687H43.7091V36.1625C43.7091 36.644 44.1094 37.0468 44.6044 37.0468C45.0995 37.0468 45.4998 36.644 45.4998 36.1625V2.38435C45.4998 1.90282 45.0995 1.5 44.6044 1.5H17.744ZM15.8486 2.38435C15.8486 1.34309 16.7041 0.5 17.744 0.5H44.6044C45.6443 0.5 46.4998 1.34309 46.4998 2.38435V36.1625C46.4998 37.2037 45.6443 38.0468 44.6044 38.0468C43.5646 38.0468 42.7091 37.2037 42.7091 36.1625V4.2687H17.744C16.7041 4.2687 15.8486 3.42561 15.8486 2.38435ZM9.29102 8.47541C9.29102 7.43416 10.1465 6.59106 11.1864 6.59106H38.0468C39.0867 6.59106 39.9422 7.43416 39.9422 8.47541V42.2535C39.9422 43.2948 39.0867 44.1379 38.0468 44.1379C37.007 44.1379 36.1515 43.2948 36.1515 42.2535V10.3598H11.1864C10.1465 10.3598 9.29102 9.51667 9.29102 8.47541ZM11.1864 7.59106C10.6913 7.59106 10.291 7.99389 10.291 8.47541C10.291 8.95694 10.6913 9.35976 11.1864 9.35976H37.1515V42.2535C37.1515 42.735 37.5518 43.1379 38.0468 43.1379C38.5419 43.1379 38.9422 42.735 38.9422 42.2535V8.47541C38.9422 7.99389 38.5419 7.59106 38.0468 7.59106H11.1864ZM0.5 14.7742C0.5 13.733 1.3555 12.8899 2.39535 12.8899H31.2093C32.2491 12.8899 33.1046 13.733 33.1046 14.7742V51.0442C33.1046 52.0854 32.2491 52.9285 31.2093 52.9285H2.39535C1.3555 52.9285 0.5 52.0854 0.5 51.0442V14.7742ZM2.39535 13.8899C1.90031 13.8899 1.5 14.2927 1.5 14.7742V51.0442C1.5 51.5257 1.90031 51.9285 2.39535 51.9285H31.2093C31.7043 51.9285 32.1046 51.5257 32.1046 51.0442V14.7742C32.1046 14.2927 31.7043 13.8899 31.2093 13.8899H2.39535ZM3.2907 15.6586H30.3139V50.1598H3.2907V15.6586ZM4.2907 16.6586V49.1598H29.3139V16.6586H4.2907ZM9.5 27.1382C9.5 26.2361 10.2361 25.5 11.1382 25.5H22.8618C23.7639 25.5 24.5 26.2361 24.5 27.1382C24.5 28.0237 23.8373 28.7764 22.8618 28.7764H11.1382C10.2361 28.7764 9.5 28.0404 9.5 27.1382ZM11.1382 26.5C10.7883 26.5 10.5 26.7883 10.5 27.1382C10.5 27.4881 10.7883 27.7764 11.1382 27.7764H22.8618C23.2522 27.7764 23.5 27.5048 23.5 27.1382C23.5 26.7883 23.2117 26.5 22.8618 26.5H11.1382ZM11.1382 31.1667C10.7883 31.1667 10.5 31.4551 10.5 31.805C10.5 32.1548 10.7883 32.4432 11.1382 32.4432H22.8618C23.2522 32.4432 23.5 32.1715 23.5 31.805C23.5 31.4551 23.2117 31.1667 22.8618 31.1667H11.1382ZM9.5 31.805C9.5 30.9028 10.2361 30.1667 11.1382 30.1667H22.8618C23.7639 30.1667 24.5 30.9028 24.5 31.805C24.5 32.6904 23.8373 33.4432 22.8618 33.4432H11.1382C10.2361 33.4432 9.5 32.7071 9.5 31.805Z" fill="#2FB39B"/>
</svg>
