<svg width="59" height="49" viewBox="0 0 59 49" fill="none" xmlns="http://www.w3.org/2000/svg">
<path d="M39.0054 35.2609H46.7826C51.8752 35.2609 56 31.1361 56 26.0435C56 20.9509 51.8752 16.8261 46.7826 16.8261C46.3793 16.8261 45.9991 16.8607 45.6074 16.9067C45.6189 16.78 45.6304 16.6648 45.6304 16.538C45.6304 12.8741 42.6693 9.91304 39.0054 9.91304C38.0837 9.91304 37.2196 10.0974 36.4246 10.4315C34.4313 6.05326 30.0185 3 24.8913 3C17.8861 3 12.2174 8.6687 12.2174 15.6739C12.2174 16.0657 12.2404 16.4459 12.275 16.8261C12.252 16.8261 12.2404 16.8261 12.2174 16.8261C7.12478 16.8261 3 20.9509 3 26.0435C3 31.1361 7.12478 35.2609 12.2174 35.2609H17.973" stroke="#2092D2" stroke-width="5" stroke-miterlimit="10"/>
<path d="M23.7388 23.739V44.4781" stroke="#2092D2" stroke-width="5" stroke-miterlimit="10"/>
<path d="M34.1089 26.0435V45.6304" stroke="#2092D2" stroke-width="5" stroke-miterlimit="10"/>
<path d="M19.1304 27.1956L23.7391 22.5869L28.3478 27.1956" stroke="#2092D2" stroke-width="3" stroke-miterlimit="10"/>
<path d="M29.5 42.1738L34.1087 46.7825L38.7174 42.1738" stroke="#2092D2" stroke-width="3" stroke-miterlimit="10"/>
</svg>
