<svg width="47" height="53" viewBox="0 0 47 53" fill="none" xmlns="http://www.w3.org/2000/svg">
<path fill-rule="evenodd" clip-rule="evenodd" d="M43.2091 36.1625C43.2091 36.9238 43.837 37.5468 44.6044 37.5468C45.3719 37.5468 45.9998 36.9238 45.9998 36.1625V2.38435C45.9998 1.62296 45.3719 1 44.6044 1H17.744C16.9765 1 16.3486 1.62296 16.3486 2.38435C16.3486 3.14574 16.9765 3.7687 17.744 3.7687H43.2091V36.1625ZM38.0468 43.6379C37.2794 43.6379 36.6515 43.0149 36.6515 42.2535V9.85976H11.1864C10.4189 9.85976 9.79102 9.2368 9.79102 8.47541C9.79102 7.71402 10.4189 7.09106 11.1864 7.09106H38.0468C38.8143 7.09106 39.4422 7.71402 39.4422 8.47541V42.2535C39.4422 43.0149 38.8143 43.6379 38.0468 43.6379ZM31.2093 52.4285H2.39535C1.62791 52.4285 1 51.8056 1 51.0442V14.7742C1 14.0128 1.62791 13.3899 2.39535 13.3899H31.2093C31.9767 13.3899 32.6046 14.0128 32.6046 14.7742V51.0442C32.6046 51.8056 31.9767 52.4285 31.2093 52.4285ZM3.7907 49.6598H29.8139V16.1586H3.7907V49.6598ZM22.8618 27.2764H11.1382C10.5122 27.2764 10 26.7642 10 26.1382C10 25.5122 10.5122 25 11.1382 25H22.8618C23.4878 25 24 25.5122 24 26.1382C24 26.7642 23.5447 27.2764 22.8618 27.2764ZM11.1382 31.9432H22.8618C23.5447 31.9432 24 31.431 24 30.805C24 30.1789 23.4878 29.6667 22.8618 29.6667H11.1382C10.5122 29.6667 10 30.1789 10 30.805C10 31.431 10.5122 31.9432 11.1382 31.9432Z" fill="#2092D2"/>
<path d="M43.2091 3.7687H43.7091V3.2687H43.2091V3.7687ZM36.6515 9.85976H37.1515V9.35976H36.6515V9.85976ZM29.8139 49.6598V50.1598H30.3139V49.6598H29.8139ZM3.7907 49.6598H3.2907V50.1598H3.7907V49.6598ZM29.8139 16.1586H30.3139V15.6586H29.8139V16.1586ZM3.7907 16.1586V15.6586H3.2907V16.1586H3.7907ZM44.6044 37.0468C44.1094 37.0468 43.7091 36.644 43.7091 36.1625H42.7091C42.7091 37.2037 43.5646 38.0468 44.6044 38.0468V37.0468ZM45.4998 36.1625C45.4998 36.644 45.0995 37.0468 44.6044 37.0468V38.0468C45.6443 38.0468 46.4998 37.2037 46.4998 36.1625H45.4998ZM45.4998 2.38435V36.1625H46.4998V2.38435H45.4998ZM44.6044 1.5C45.0995 1.5 45.4998 1.90282 45.4998 2.38435H46.4998C46.4998 1.34309 45.6443 0.5 44.6044 0.5V1.5ZM17.744 1.5H44.6044V0.5H17.744V1.5ZM16.8486 2.38435C16.8486 1.90282 17.2489 1.5 17.744 1.5V0.5C16.7041 0.5 15.8486 1.34309 15.8486 2.38435H16.8486ZM17.744 3.2687C17.2489 3.2687 16.8486 2.86587 16.8486 2.38435H15.8486C15.8486 3.42561 16.7041 4.2687 17.744 4.2687V3.2687ZM43.2091 3.2687H17.744V4.2687H43.2091V3.2687ZM43.7091 36.1625V3.7687H42.7091V36.1625H43.7091ZM36.1515 42.2535C36.1515 43.2948 37.007 44.1379 38.0468 44.1379V43.1379C37.5518 43.1379 37.1515 42.735 37.1515 42.2535H36.1515ZM36.1515 9.85976V42.2535H37.1515V9.85976H36.1515ZM11.1864 10.3598H36.6515V9.35976H11.1864V10.3598ZM9.29102 8.47541C9.29102 9.51667 10.1465 10.3598 11.1864 10.3598V9.35976C10.6913 9.35976 10.291 8.95694 10.291 8.47541H9.29102ZM11.1864 6.59106C10.1465 6.59106 9.29102 7.43416 9.29102 8.47541H10.291C10.291 7.99389 10.6913 7.59106 11.1864 7.59106V6.59106ZM38.0468 6.59106H11.1864V7.59106H38.0468V6.59106ZM39.9422 8.47541C39.9422 7.43415 39.0867 6.59106 38.0468 6.59106V7.59106C38.5419 7.59106 38.9422 7.99389 38.9422 8.47541H39.9422ZM39.9422 42.2535V8.47541H38.9422V42.2535H39.9422ZM38.0468 44.1379C39.0867 44.1379 39.9422 43.2948 39.9422 42.2535H38.9422C38.9422 42.735 38.5419 43.1379 38.0468 43.1379V44.1379ZM2.39535 52.9285H31.2093V51.9285H2.39535V52.9285ZM0.5 51.0442C0.5 52.0854 1.3555 52.9285 2.39535 52.9285V51.9285C1.90031 51.9285 1.5 51.5257 1.5 51.0442H0.5ZM0.5 14.7742V51.0442H1.5V14.7742H0.5ZM2.39535 12.8899C1.3555 12.8899 0.5 13.733 0.5 14.7742H1.5C1.5 14.2927 1.90031 13.8899 2.39535 13.8899V12.8899ZM31.2093 12.8899H2.39535V13.8899H31.2093V12.8899ZM33.1046 14.7742C33.1046 13.733 32.2491 12.8899 31.2093 12.8899V13.8899C31.7043 13.8899 32.1046 14.2927 32.1046 14.7742H33.1046ZM33.1046 51.0442V14.7742H32.1046V51.0442H33.1046ZM31.2093 52.9285C32.2491 52.9285 33.1046 52.0854 33.1046 51.0442H32.1046C32.1046 51.5257 31.7043 51.9285 31.2093 51.9285V52.9285ZM29.8139 49.1598H3.7907V50.1598H29.8139V49.1598ZM29.3139 16.1586V49.6598H30.3139V16.1586H29.3139ZM3.7907 16.6586H29.8139V15.6586H3.7907V16.6586ZM4.2907 49.6598V16.1586H3.2907V49.6598H4.2907ZM11.1382 27.7764H22.8618V26.7764H11.1382V27.7764ZM9.5 26.1382C9.5 27.0404 10.2361 27.7764 11.1382 27.7764V26.7764C10.7883 26.7764 10.5 26.4881 10.5 26.1382H9.5ZM11.1382 24.5C10.2361 24.5 9.5 25.2361 9.5 26.1382H10.5C10.5 25.7883 10.7883 25.5 11.1382 25.5V24.5ZM22.8618 24.5H11.1382V25.5H22.8618V24.5ZM24.5 26.1382C24.5 25.2361 23.7639 24.5 22.8618 24.5V25.5C23.2117 25.5 23.5 25.7883 23.5 26.1382H24.5ZM22.8618 27.7764C23.8373 27.7764 24.5 27.0237 24.5 26.1382H23.5C23.5 26.5048 23.2522 26.7764 22.8618 26.7764V27.7764ZM22.8618 31.4432H11.1382V32.4432H22.8618V31.4432ZM23.5 30.805C23.5 31.1715 23.2522 31.4432 22.8618 31.4432V32.4432C23.8373 32.4432 24.5 31.6904 24.5 30.805H23.5ZM22.8618 30.1667C23.2117 30.1667 23.5 30.4551 23.5 30.805H24.5C24.5 29.9028 23.7639 29.1667 22.8618 29.1667V30.1667ZM11.1382 30.1667H22.8618V29.1667H11.1382V30.1667ZM10.5 30.805C10.5 30.4551 10.7883 30.1667 11.1382 30.1667V29.1667C10.2361 29.1667 9.5 29.9028 9.5 30.805H10.5ZM11.1382 31.4432C10.7883 31.4432 10.5 31.1548 10.5 30.805H9.5C9.5 31.7071 10.2361 32.4432 11.1382 32.4432V31.4432Z" fill="#2092D2"/>
</svg>
