<svg width="59" height="54" viewBox="0 0 59 54" fill="none" xmlns="http://www.w3.org/2000/svg">
<path d="M35.9548 17.25C34.7445 17.25 33.5837 17.6912 32.7278 18.4765C31.8719 19.2618 31.3911 20.3269 31.3911 21.4375C31.3911 22.5481 31.8719 23.6132 32.7278 24.3985C33.5837 25.1838 34.7445 25.625 35.9548 25.625C37.1652 25.625 38.326 25.1838 39.1819 24.3985C40.0377 23.6132 40.5186 22.5481 40.5186 21.4375C40.5186 20.3269 40.0377 19.2618 39.1819 18.4765C38.326 17.6912 37.1652 17.25 35.9548 17.25ZM35.9548 28.4167C34.7445 28.4167 33.5837 28.8578 32.7278 29.6432C31.8719 30.4285 31.3911 31.4936 31.3911 32.6042C31.3911 33.7148 31.8719 34.7799 32.7278 35.5652C33.5837 36.3505 34.7445 36.7917 35.9548 36.7917C37.1652 36.7917 38.326 36.3505 39.1819 35.5652C40.0377 34.7799 40.5186 33.7148 40.5186 32.6042C40.5186 31.4936 40.0377 30.4285 39.1819 29.6432C38.326 28.8578 37.1652 28.4167 35.9548 28.4167ZM23.7849 40.9792C22.978 40.9792 22.2041 41.2733 21.6336 41.7968C21.063 42.3204 20.7424 43.0304 20.7424 43.7708C20.7424 44.5112 21.063 45.2213 21.6336 45.7448C22.2041 46.2684 22.978 46.5625 23.7849 46.5625C24.5918 46.5625 25.3657 46.2684 25.9363 45.7448C26.5068 45.2213 26.8274 44.5112 26.8274 43.7708C26.8274 43.0304 26.5068 42.3204 25.9363 41.7968C25.3657 41.2733 24.5918 40.9792 23.7849 40.9792ZM23.7849 17.25C22.5745 17.25 21.4137 17.6912 20.5579 18.4765C19.702 19.2618 19.2212 20.3269 19.2212 21.4375C19.2212 22.5481 19.702 23.6132 20.5579 24.3985C21.4137 25.1838 22.5745 25.625 23.7849 25.625C24.9953 25.625 26.1561 25.1838 27.012 24.3985C27.8678 23.6132 28.3486 22.5481 28.3486 21.4375C28.3486 20.3269 27.8678 19.2618 27.012 18.4765C26.1561 17.6912 24.9953 17.25 23.7849 17.25ZM35.9548 50.75C35.5514 50.75 35.1644 50.8971 34.8792 51.1588C34.5939 51.4206 34.4336 51.7756 34.4336 52.1458C34.4336 52.516 34.5939 52.8711 34.8792 53.1328C35.1644 53.3946 35.5514 53.5417 35.9548 53.5417C36.3583 53.5417 36.7452 53.3946 37.0305 53.1328C37.3158 52.8711 37.4761 52.516 37.4761 52.1458C37.4761 51.7756 37.3158 51.4206 37.0305 51.1588C36.7452 50.8971 36.3583 50.75 35.9548 50.75ZM35.9548 40.9792C35.1479 40.9792 34.3741 41.2733 33.8035 41.7968C33.2329 42.3204 32.9124 43.0304 32.9124 43.7708C32.9124 44.5112 33.2329 45.2213 33.8035 45.7448C34.3741 46.2684 35.1479 46.5625 35.9548 46.5625C36.7617 46.5625 37.5356 46.2684 38.1062 45.7448C38.6768 45.2213 38.9973 44.5112 38.9973 43.7708C38.9973 43.0304 38.6768 42.3204 38.1062 41.7968C37.5356 41.2733 36.7617 40.9792 35.9548 40.9792ZM57.2522 31.2083C56.8487 31.2083 56.4618 31.3554 56.1765 31.6172C55.8912 31.8789 55.731 32.234 55.731 32.6042C55.731 32.9744 55.8912 33.3294 56.1765 33.5912C56.4618 33.8529 56.8487 34 57.2522 34C57.6557 34 58.0426 33.8529 58.3279 33.5912C58.6132 33.3294 58.7734 32.9744 58.7734 32.6042C58.7734 32.234 58.6132 31.8789 58.3279 31.6172C58.0426 31.3554 57.6557 31.2083 57.2522 31.2083ZM48.1248 7.47917C47.3178 7.47917 46.544 7.77329 45.9734 8.29683C45.4028 8.82037 45.0823 9.53044 45.0823 10.2708C45.0823 11.0112 45.4028 11.7213 45.9734 12.2448C46.544 12.7684 47.3178 13.0625 48.1248 13.0625C48.9317 13.0625 49.7055 12.7684 50.2761 12.2448C50.8467 11.7213 51.1672 11.0112 51.1672 10.2708C51.1672 9.53044 50.8467 8.82037 50.2761 8.29683C49.7055 7.77329 48.9317 7.47917 48.1248 7.47917ZM48.1248 18.6458C47.3178 18.6458 46.544 18.94 45.9734 19.4635C45.4028 19.987 45.0823 20.6971 45.0823 21.4375C45.0823 22.1779 45.4028 22.888 45.9734 23.4115C46.544 23.935 47.3178 24.2292 48.1248 24.2292C48.9317 24.2292 49.7055 23.935 50.2761 23.4115C50.8467 22.888 51.1672 22.1779 51.1672 21.4375C51.1672 20.6971 50.8467 19.987 50.2761 19.4635C49.7055 18.94 48.9317 18.6458 48.1248 18.6458ZM48.1248 40.9792C47.3178 40.9792 46.544 41.2733 45.9734 41.7968C45.4028 42.3204 45.0823 43.0304 45.0823 43.7708C45.0823 44.5112 45.4028 45.2213 45.9734 45.7448C46.544 46.2684 47.3178 46.5625 48.1248 46.5625C48.9317 46.5625 49.7055 46.2684 50.2761 45.7448C50.8467 45.2213 51.1672 44.5112 51.1672 43.7708C51.1672 43.0304 50.8467 42.3204 50.2761 41.7968C49.7055 41.2733 48.9317 40.9792 48.1248 40.9792ZM48.1248 29.8125C47.3178 29.8125 46.544 30.1066 45.9734 30.6302C45.4028 31.1537 45.0823 31.8638 45.0823 32.6042C45.0823 33.3446 45.4028 34.0546 45.9734 34.5782C46.544 35.1017 47.3178 35.3958 48.1248 35.3958C48.9317 35.3958 49.7055 35.1017 50.2761 34.5782C50.8467 34.0546 51.1672 33.3446 51.1672 32.6042C51.1672 31.8638 50.8467 31.1537 50.2761 30.6302C49.7055 30.1066 48.9317 29.8125 48.1248 29.8125ZM23.7849 28.4167C22.5745 28.4167 21.4137 28.8578 20.5579 29.6432C19.702 30.4285 19.2212 31.4936 19.2212 32.6042C19.2212 33.7148 19.702 34.7799 20.5579 35.5652C21.4137 36.3505 22.5745 36.7917 23.7849 36.7917C24.9953 36.7917 26.1561 36.3505 27.012 35.5652C27.8678 34.7799 28.3486 33.7148 28.3486 32.6042C28.3486 31.4936 27.8678 30.4285 27.012 29.6432C26.1561 28.8578 24.9953 28.4167 23.7849 28.4167ZM23.7849 13.0625C24.5918 13.0625 25.3657 12.7684 25.9363 12.2448C26.5068 11.7213 26.8274 11.0112 26.8274 10.2708C26.8274 9.53044 26.5068 8.82037 25.9363 8.29683C25.3657 7.77329 24.5918 7.47917 23.7849 7.47917C22.978 7.47917 22.2041 7.77329 21.6336 8.29683C21.063 8.82037 20.7424 9.53044 20.7424 10.2708C20.7424 11.0112 21.063 11.7213 21.6336 12.2448C22.2041 12.7684 22.978 13.0625 23.7849 13.0625ZM23.7849 3.29167C24.1884 3.29167 24.5753 3.14461 24.8606 2.88284C25.1459 2.62107 25.3062 2.26603 25.3062 1.89583C25.3062 1.52564 25.1459 1.1706 24.8606 0.90883C24.5753 0.647061 24.1884 0.5 23.7849 0.5C23.3815 0.5 22.9945 0.647061 22.7092 0.90883C22.4239 1.1706 22.2637 1.52564 22.2637 1.89583C22.2637 2.26603 22.4239 2.62107 22.7092 2.88284C22.9945 3.14461 23.3815 3.29167 23.7849 3.29167ZM23.7849 50.75C23.3815 50.75 22.9945 50.8971 22.7092 51.1588C22.4239 51.4206 22.2637 51.7756 22.2637 52.1458C22.2637 52.516 22.4239 52.8711 22.7092 53.1328C22.9945 53.3946 23.3815 53.5417 23.7849 53.5417C24.1884 53.5417 24.5753 53.3946 24.8606 53.1328C25.1459 52.8711 25.3062 52.516 25.3062 52.1458C25.3062 51.7756 25.1459 51.4206 24.8606 51.1588C24.5753 50.8971 24.1884 50.75 23.7849 50.75ZM2.48755 31.2083C2.08409 31.2083 1.69716 31.3554 1.41187 31.6172C1.12658 31.8789 0.966309 32.234 0.966309 32.6042C0.966309 32.9744 1.12658 33.3294 1.41187 33.5912C1.69716 33.8529 2.08409 34 2.48755 34C2.89101 34 3.27794 33.8529 3.56323 33.5912C3.84852 33.3294 4.00879 32.9744 4.00879 32.6042C4.00879 32.234 3.84852 31.8789 3.56323 31.6172C3.27794 31.3554 2.89101 31.2083 2.48755 31.2083ZM35.9548 3.29167C36.3583 3.29167 36.7452 3.14461 37.0305 2.88284C37.3158 2.62107 37.4761 2.26603 37.4761 1.89583C37.4761 1.52564 37.3158 1.1706 37.0305 0.90883C36.7452 0.647061 36.3583 0.5 35.9548 0.5C35.5514 0.5 35.1644 0.647061 34.8792 0.90883C34.5939 1.1706 34.4336 1.52564 34.4336 1.89583C34.4336 2.26603 34.5939 2.62107 34.8792 2.88284C35.1644 3.14461 35.5514 3.29167 35.9548 3.29167ZM35.9548 13.0625C36.7617 13.0625 37.5356 12.7684 38.1062 12.2448C38.6768 11.7213 38.9973 11.0112 38.9973 10.2708C38.9973 9.53044 38.6768 8.82037 38.1062 8.29683C37.5356 7.77329 36.7617 7.47917 35.9548 7.47917C35.1479 7.47917 34.3741 7.77329 33.8035 8.29683C33.2329 8.82037 32.9124 9.53044 32.9124 10.2708C32.9124 11.0112 33.2329 11.7213 33.8035 12.2448C34.3741 12.7684 35.1479 13.0625 35.9548 13.0625ZM57.2522 22.8333C57.6557 22.8333 58.0426 22.6863 58.3279 22.4245C58.6132 22.1627 58.7734 21.8077 58.7734 21.4375C58.7734 21.0673 58.6132 20.7123 58.3279 20.4505C58.0426 20.1887 57.6557 20.0417 57.2522 20.0417C56.8487 20.0417 56.4618 20.1887 56.1765 20.4505C55.8912 20.7123 55.731 21.0673 55.731 21.4375C55.731 21.8077 55.8912 22.1627 56.1765 22.4245C56.4618 22.6863 56.8487 22.8333 57.2522 22.8333ZM11.615 7.47917C10.8081 7.47917 10.0342 7.77329 9.46363 8.29683C8.89306 8.82037 8.57251 9.53044 8.57251 10.2708C8.57251 11.0112 8.89306 11.7213 9.46363 12.2448C10.0342 12.7684 10.8081 13.0625 11.615 13.0625C12.4219 13.0625 13.1958 12.7684 13.7663 12.2448C14.3369 11.7213 14.6575 11.0112 14.6575 10.2708C14.6575 9.53044 14.3369 8.82037 13.7663 8.29683C13.1958 7.77329 12.4219 7.47917 11.615 7.47917ZM2.48755 20.0417C2.08409 20.0417 1.69716 20.1887 1.41187 20.4505C1.12658 20.7123 0.966309 21.0673 0.966309 21.4375C0.966309 21.8077 1.12658 22.1627 1.41187 22.4245C1.69716 22.6863 2.08409 22.8333 2.48755 22.8333C2.89101 22.8333 3.27794 22.6863 3.56323 22.4245C3.84852 22.1627 4.00879 21.8077 4.00879 21.4375C4.00879 21.0673 3.84852 20.7123 3.56323 20.4505C3.27794 20.1887 2.89101 20.0417 2.48755 20.0417ZM11.615 18.6458C10.8081 18.6458 10.0342 18.94 9.46363 19.4635C8.89306 19.987 8.57251 20.6971 8.57251 21.4375C8.57251 22.1779 8.89306 22.888 9.46363 23.4115C10.0342 23.935 10.8081 24.2292 11.615 24.2292C12.4219 24.2292 13.1958 23.935 13.7663 23.4115C14.3369 22.888 14.6575 22.1779 14.6575 21.4375C14.6575 20.6971 14.3369 19.987 13.7663 19.4635C13.1958 18.94 12.4219 18.6458 11.615 18.6458ZM11.615 40.9792C10.8081 40.9792 10.0342 41.2733 9.46363 41.7968C8.89306 42.3204 8.57251 43.0304 8.57251 43.7708C8.57251 44.5112 8.89306 45.2213 9.46363 45.7448C10.0342 46.2684 10.8081 46.5625 11.615 46.5625C12.4219 46.5625 13.1958 46.2684 13.7663 45.7448C14.3369 45.2213 14.6575 44.5112 14.6575 43.7708C14.6575 43.0304 14.3369 42.3204 13.7663 41.7968C13.1958 41.2733 12.4219 40.9792 11.615 40.9792ZM11.615 29.8125C10.8081 29.8125 10.0342 30.1066 9.46363 30.6302C8.89306 31.1537 8.57251 31.8638 8.57251 32.6042C8.57251 33.3446 8.89306 34.0546 9.46363 34.5782C10.0342 35.1017 10.8081 35.3958 11.615 35.3958C12.4219 35.3958 13.1958 35.1017 13.7663 34.5782C14.3369 34.0546 14.6575 33.3446 14.6575 32.6042C14.6575 31.8638 14.3369 31.1537 13.7663 30.6302C13.1958 30.1066 12.4219 29.8125 11.615 29.8125Z" fill="#2FB39B"/>
</svg>
