<svg width="53" height="43" viewBox="0 0 53 43" fill="none" xmlns="http://www.w3.org/2000/svg">
<path d="M50.9942 13.1289H44.88C44.0246 13.1289 43.3296 13.8355 43.3296 14.7052V40.6073C43.3296 41.4769 44.0246 42.1835 44.88 42.1835H50.9942C51.8545 42.1835 52.5446 41.4769 52.5446 40.6073V14.7052C52.5446 13.8355 51.8545 13.1289 50.9942 13.1289Z" fill="#2092D2"/>
<path d="M36.5499 25.9414H30.4357C29.5803 25.9414 28.8853 26.648 28.8853 27.5177V40.6071C28.8853 41.4767 29.5803 42.1833 30.4357 42.1833H36.5499C37.4102 42.1833 38.1003 41.4767 38.1003 40.6071V27.5177C38.1003 26.6431 37.4102 25.9414 36.5499 25.9414Z" fill="#2092D2"/>
<path d="M22.1055 17.1904H15.9913C15.1359 17.1904 14.4409 17.897 14.4409 18.7667V40.6071C14.4409 41.4767 15.1359 42.1833 15.9913 42.1833H22.1055C22.9658 42.1833 23.656 41.4767 23.656 40.6071V18.7667C23.6608 17.897 22.9658 17.1904 22.1055 17.1904Z" fill="#2092D2"/>
<path d="M7.66462 22.1912H1.55042C0.695016 22.1912 0 22.8978 0 23.7674V40.6072C0 41.4769 0.695016 42.1835 1.55042 42.1835H7.66462C8.52003 42.1835 9.21505 41.4769 9.21505 40.6072V23.7674C9.21505 22.8978 8.52003 22.1912 7.66462 22.1912Z" fill="#2092D2"/>
<path d="M4.91426 18.1295C6.56188 18.1295 7.91789 16.8843 8.1123 15.2685L17.5704 9.9517C18.0126 10.1889 18.5181 10.3174 19.0527 10.3174C19.4464 10.3174 19.8207 10.2432 20.1706 10.1148L30.416 16.7608C30.8243 18.0949 32.0491 19.0634 33.4974 19.0634C35.2277 19.0634 36.6371 17.6848 36.7246 15.9454L47.3977 6.44835C47.6699 6.52246 47.9567 6.56199 48.2483 6.56199C50.032 6.56199 51.4804 5.09444 51.4804 3.281C51.4804 1.46755 50.032 0 48.2483 0C46.5083 0 45.0843 1.40332 45.0259 3.15746L34.3868 12.62C34.1049 12.536 33.8036 12.4915 33.4974 12.4915C32.9288 12.4915 32.3893 12.6447 31.9276 12.9115L22.2605 6.63611C22.0661 5.0055 20.7101 3.74053 19.0527 3.74053C17.5461 3.74053 16.2775 4.79302 15.9276 6.21611L6.06127 11.7651C5.70648 11.6317 5.32252 11.5527 4.91912 11.5527C3.14026 11.5527 1.69191 13.0202 1.69191 14.8337C1.68705 16.6619 3.1354 18.1295 4.91426 18.1295Z" fill="#2092D2"/>
</svg>
