<svg width="59" height="50" viewBox="0 0 59 50" fill="none" xmlns="http://www.w3.org/2000/svg">
<path d="M49.5535 5.75388C49.5535 6.61465 49.8513 7.40351 50.3471 8.03164L42.2133 16.117C41.1006 14.884 39.6283 13.9788 37.9603 13.5622L38.6879 7.99569C39.1858 7.95762 39.6794 7.78208 40.1049 7.45639C41.2687 6.56601 41.4857 4.90579 40.59 3.74893C39.6943 2.59207 38.0241 2.37635 36.8603 3.26673C35.6966 4.15711 35.4796 5.81732 36.3753 6.97418C36.6114 7.28085 36.905 7.51772 37.2263 7.68903L36.4901 13.3295C36.2902 13.3147 36.088 13.3063 35.8817 13.3063C34.5455 13.3063 33.2818 13.6129 32.1584 14.1586L28.4841 10.5061C30.0904 8.43348 29.9393 5.44721 28.0288 3.54802C25.9523 1.48386 22.5843 1.48386 20.5057 3.54802C18.4291 5.61218 18.4291 8.9601 20.5057 11.0264C22.3907 12.9002 25.3395 13.0736 27.4224 11.5445L30.8478 14.9707C28.9564 16.3538 27.6607 18.4286 27.416 20.9665L12.5911 20.9665C12.2528 18.4286 10.021 16.3454 7.31894 16.3454C4.38076 16.3454 2 18.7014 2 21.6221C2 24.5428 4.38076 26.9263 7.31894 26.9263C9.9848 26.9263 12.1932 24.9869 12.5783 22.449L27.3969 22.449C27.565 24.564 28.6096 26.6704 30.1968 28.0874L24.8119 33.4297C24.3332 33.1463 23.7779 32.975 23.18 32.975C21.4184 32.975 19.9887 34.392 19.9887 36.1453C19.9887 37.8964 21.4184 39.3155 23.18 39.3155C24.9417 39.3155 26.3714 37.8943 26.3714 36.1431C26.3714 35.5214 26.1884 34.944 25.8778 34.4533L31.401 28.963C32.7031 29.7667 34.237 30.2298 35.8817 30.2298C36.3114 30.2298 36.7327 30.1981 37.1433 30.1368L39.4603 37.465C37.071 38.5647 35.8157 41.2803 36.6263 43.8436C37.5071 46.6289 40.4921 48.1791 43.2941 47.3036C46.0962 46.428 47.6557 43.4608 46.7749 40.6754C45.9749 38.146 43.4409 36.638 40.8857 37.0356L38.5943 29.7836C41.0581 28.9609 43.0176 27.049 43.8941 24.6211L47.8386 25.7631C47.8004 26.258 47.8982 26.7698 48.1578 27.2393C48.8641 28.5189 50.4811 28.9884 51.7683 28.2862C53.0555 27.5841 53.5278 25.9767 52.8214 24.6972C52.1151 23.4177 50.4981 22.9482 49.2109 23.6503C48.8705 23.8364 48.5897 24.086 48.3684 24.3757L44.2707 23.1893C44.3494 22.7261 44.392 22.2524 44.392 21.7659C44.392 20.1311 43.9239 18.6062 43.1176 17.3119L51.4832 8.99605C52.0151 9.2879 52.6257 9.45498 53.2767 9.45498C55.332 9.45498 57 7.79689 57 5.75388C57 3.70875 55.332 2.05277 53.2767 2.05277C51.2215 2.05277 49.5535 3.70875 49.5535 5.75388ZM24.8821 36.1368C24.8821 37.0695 24.1183 37.465 23.18 37.465C22.2418 37.465 21.478 37.0695 21.478 36.1368C21.478 35.2041 22.2418 34.9421 23.18 34.9421C24.1183 34.9421 24.8821 35.2041 24.8821 36.1368ZM42.9027 21.7659C42.9027 25.6151 39.7539 28.7452 35.8817 28.7452C32.0095 28.7452 28.8607 25.6151 28.8607 21.7659C28.8607 17.9168 32.0095 14.7867 35.8817 14.7867C39.7539 14.7867 42.9027 17.9168 42.9027 21.7659Z" fill="#2092D2" stroke="#2092D2" stroke-width="3"/>
</svg>
