<svg width="56" height="56" viewBox="0 0 56 56" fill="none" xmlns="http://www.w3.org/2000/svg">
<path d="M53.0001 51.8095C53.0001 52.4642 52.408 52.9999 51.6843 52.9999H29.3158C28.5921 52.9999 28 52.4642 28 51.8095V37.5237C28 36.869 28.5921 36.3333 29.3158 36.3333H51.6843C52.408 36.3333 53.0001 36.869 53.0001 37.5237V51.8095Z" stroke="#2092D2" stroke-width="5" stroke-miterlimit="10"/>
<path d="M33.2637 29.7858C33.2637 26.1667 36.5005 23.2382 40.5006 23.2382C44.5006 23.2382 47.7374 26.1667 47.7374 29.7858V36.3334H33.2637V29.7858Z" stroke="#2092D2" stroke-width="5" stroke-miterlimit="10"/>
<path d="M45.1055 19.6667V10.1429C45.1055 6.20238 35.6844 3 24.0528 3C12.4211 3 3 6.20238 3 10.1429V22.0476C3 25.9881 12.4211 29.1905 24.0528 29.1905C25.8686 29.1905 27.6317 29.1072 29.3159 28.9643" stroke="#2092D2" stroke-width="5" stroke-miterlimit="10"/>
<path d="M3 10.1429C3 14.0834 12.4211 17.2858 24.0528 17.2858C35.6844 17.2858 45.1055 14.0834 45.1055 10.1429" stroke="#2092D2" stroke-width="5" stroke-miterlimit="10"/>
<path d="M3 23.2382V33.9525C3 37.8929 12.4211 41.0953 24.0528 41.0953" stroke="#2092D2" stroke-width="5" stroke-miterlimit="10"/>
<path d="M3 35.1428V45.8571C3 49.7976 12.4211 53 24.0528 53" stroke="#2092D2" stroke-width="5" stroke-miterlimit="10"/>
</svg>
