<svg width="55" height="54" viewBox="0 0 55 54" fill="none" xmlns="http://www.w3.org/2000/svg">
<path d="M53.209 48.7101L53.209 19.408C53.209 17.495 51.6369 15.938 49.7049 15.938L26.7344 15.938C26.0892 15.938 25.5664 16.4557 25.5664 17.0946C25.5664 17.7335 26.0892 18.2512 26.7344 18.2512L49.7049 18.2512C50.3489 18.2512 50.8729 18.7701 50.8729 19.4078L50.8729 48.7098C50.8729 49.3476 50.3489 49.8664 49.7049 49.8664L20.1157 49.8664C19.4717 49.8664 18.9477 49.3476 18.9477 48.7098L18.9477 25.9625C18.9477 25.3236 18.4249 24.8059 17.7798 24.8059C17.1346 24.8059 16.6118 25.3236 16.6118 25.9625L16.6118 48.7101C16.6118 50.6235 18.1837 52.1801 20.1159 52.1801L49.7049 52.1801C51.6369 52.1801 53.209 50.6235 53.209 48.7101Z" stroke="#2FB39B" stroke-width="3"/>
<path d="M14.1263 21.3548C14.1263 20.7159 13.6035 20.1982 12.9583 20.1982L5.56108 20.1982C5.0163 20.1982 4.57299 19.7592 4.57299 19.2192L4.57299 4.98402C4.57299 4.44408 5.0163 4.00508 5.56108 4.00508L19.9368 4.00508C20.4816 4.00508 20.9249 4.98402 20.9249 4.98402L20.9249 12.3095C20.9249 12.9481 21.4477 13.4661 22.0928 13.4661C22.7379 13.4661 23.2607 12.9479 23.2607 12.3095L23.2607 4.98402C23.2607 3.16881 21.7696 1.69165 19.9368 1.69165L5.56108 1.69165C3.72807 1.69165 2.23688 3.16881 2.23688 4.98402L2.23688 19.2197C2.23688 21.0349 3.72807 22.5121 5.56108 22.5121L12.9583 22.5121C13.6035 22.5114 14.1263 21.9939 14.1263 21.3548Z" stroke="#2FB39B" stroke-width="3"/>
<path d="M9.10023 8.49896C8.9168 8.68061 8.825 8.91889 8.825 9.15682C8.825 9.39474 8.9168 9.63303 9.10023 9.8145L36.9259 37.37L30.4271 37.37C29.9083 37.37 29.4879 37.7864 29.4879 38.3001C29.4879 38.8138 29.9083 39.2301 30.4271 39.2301L39.1932 39.2301C39.7119 39.2301 40.1323 38.8138 40.1323 38.3001L40.1323 29.6191C40.1323 29.1054 39.7119 28.6891 39.1932 28.6891C38.6744 28.6891 38.254 29.1054 38.254 29.6191L38.254 36.0548L10.4283 8.49932C10.0618 8.13603 9.4669 8.13603 9.10023 8.49896Z" stroke="#2FB39B" stroke-width="3"/>
</svg>
