<svg width="244" height="104" viewBox="0 0 244 104" fill="none" xmlns="http://www.w3.org/2000/svg">
<path d="M0.109863 3.70036H36.4989C42.9411 3.70036 48.979 5.01956 54.6395 7.6849C60.2731 10.3502 65.2058 13.8771 69.4377 18.2924C73.6696 22.7077 76.9851 27.8499 79.411 33.7191C81.837 39.5882 83.0499 45.7535 83.0499 52.161C83.0499 58.5148 81.8639 64.6262 79.4649 70.4953C77.0929 76.3645 73.7774 81.5336 69.5455 86.0028C65.3136 90.4719 60.3809 94.0257 54.7473 96.6641C49.1138 99.3294 43.022 100.649 36.4989 100.649H0.109863V3.70036ZM24.6927 79.326H30.3262C34.5851 79.326 38.3857 78.6529 41.7551 77.2798C45.0975 75.9068 47.9278 74.0222 50.2189 71.6261C52.5101 69.23 54.2621 66.3762 55.4751 63.0647C56.6881 59.7532 57.2811 56.1456 57.2811 52.188C57.2811 48.338 56.6611 44.7304 55.3942 41.392C54.1274 38.0536 52.3484 35.1729 50.0572 32.7768C47.766 30.3807 44.9358 28.4961 41.5934 27.123C38.251 25.75 34.4773 25.0769 30.2993 25.0769H24.6657V79.326H24.6927Z" fill="#BABABA"/>
<path d="M136.555 28.523C133.886 26.2884 131.191 24.6461 128.522 23.5692C125.854 22.4923 123.266 21.9539 120.732 21.9539C117.552 21.9539 114.964 22.7346 112.942 24.2692C110.948 25.8038 109.924 27.823 109.924 30.2999C109.924 32.0229 110.436 33.4229 111.433 34.5537C112.43 35.6575 113.751 36.6267 115.395 37.4344C117.04 38.2421 118.873 38.969 120.921 39.5613C122.97 40.1536 124.991 40.7997 127.013 41.4997C135.045 44.2458 140.922 47.9073 144.641 52.4841C148.361 57.061 150.221 63.0378 150.221 70.4146C150.221 75.3953 149.412 79.8913 147.768 83.9297C146.151 87.9681 143.752 91.4142 140.625 94.2949C137.498 97.1757 133.644 99.3833 129.088 100.972C124.533 102.56 119.358 103.341 113.589 103.341C101.621 103.341 90.543 99.7064 80.3271 92.4103L90.8665 72.0838C94.5593 75.4222 98.1982 77.926 101.783 79.5413C105.368 81.1836 108.926 81.9913 112.457 81.9913C116.474 81.9913 119.466 81.049 121.433 79.1644C123.401 77.2798 124.371 75.126 124.371 72.7299C124.371 71.2761 124.129 70.0107 123.617 68.9338C123.104 67.8569 122.269 66.8877 121.11 65.9724C119.951 65.0839 118.414 64.2493 116.527 63.4686C114.641 62.6878 112.376 61.8532 109.681 60.884C106.5 59.8609 103.374 58.7302 100.328 57.4648C97.2817 56.2264 94.5593 54.5841 92.1603 52.511C89.7883 50.4649 87.8475 47.8534 86.392 44.7304C84.9364 41.6074 84.2087 37.6498 84.2087 32.8306C84.2087 28.0384 84.9903 23.6769 86.5268 19.7732C88.0632 15.8694 90.2465 12.531 93.0498 9.73102C95.8531 6.95799 99.2764 4.77726 103.347 3.24267C107.39 1.70809 111.945 0.92733 116.959 0.92733C121.649 0.92733 126.528 1.6004 131.649 2.9196C136.744 4.23881 141.649 6.20416 146.34 8.76181L136.555 28.523Z" fill="#BABABA"/>
<path d="M204.778 64.357C204.131 62.8493 203.268 61.5301 202.163 60.3994C201.058 59.2686 199.764 58.3802 198.308 57.7071C196.853 57.061 195.29 56.7379 193.618 56.7379C191.947 56.7379 190.384 57.061 188.928 57.7071C187.473 58.3533 186.179 59.2417 185.074 60.3994C183.969 61.5301 183.106 62.8493 182.459 64.357C181.812 65.8647 181.516 67.4531 181.516 69.1761C181.516 70.8723 181.839 72.4876 182.459 73.9953C183.106 75.503 183.969 76.8222 185.074 77.9529C186.179 79.0837 187.473 79.9721 188.928 80.6452C190.384 81.2913 191.947 81.6144 193.618 81.6144C195.29 81.6144 196.853 81.2913 198.308 80.6452C199.764 79.999 201.058 79.1106 202.163 77.9529C203.268 76.8222 204.131 75.503 204.778 73.9953C205.398 72.4876 205.721 70.8992 205.721 69.1761C205.721 67.4531 205.398 65.8647 204.778 64.357Z" fill="#3AD0D4"/>
<path d="M207.015 3.70036H180.168L144.156 100.676H170.383L182.567 64.6531L193.591 32.3729L204.643 64.6531L216.8 100.676H243.027L207.015 3.70036Z" fill="#BABABA"/>
</svg>
